<?xml version="1.0" encoding="UTF-8"?>
    <svg width="800" height="4250" version="1.1" xmlns="http://www.w3.org/2000/svg">
    <style>
        .row { font: 14px Arial; fill: #64748b; }
        .score { font: bold 14px Arial; fill: #64748b; }
    </style>
    <text x="400" y="40" text-anchor="middle" font-size="20px" font-weight="bold" fill="#64748b">Channel Performance Overview</text><rect x="150" y="80" width="500" height="30" fill="#eee" rx="5"/><rect x="150" y="80" width="75.0" height="30" fill="#ef4444" rx="5"/>
        <text x="140" y="100" text-anchor="end" class="row">9a075bdee5.txt</text>
        <text x="660" y="100" text-anchor="start" class="score">15.0% (S:0%)</text><rect x="150" y="130" width="500" height="30" fill="#eee" rx="5"/><rect x="150" y="130" width="325.0" height="30" fill="#eab308" rx="5"/>
        <text x="140" y="150" text-anchor="end" class="row">vmess.txt</text>
        <text x="660" y="150" text-anchor="start" class="score">65.0% (S:0%)</text><rect x="150" y="180" width="500" height="30" fill="#eee" rx="5"/><rect x="150" y="180" width="219.1" height="30" fill="#ef4444" rx="5"/>
        <text x="140" y="200" text-anchor="end" class="row">server.txt</text>
        <text x="660" y="200" text-anchor="start" class="score">43.8% (S:0%)</text><rect x="150" y="230" width="500" height="30" fill="#eee" rx="5"/><rect x="150" y="230" width="75.0" height="30" fill="#ef4444" rx="5"/>
        <text x="140" y="250" text-anchor="end" class="row">links.txt</text>
        <text x="660" y="250" text-anchor="start" class="score">15.0% (S:0%)</text><rect x="150" y="280" width="500" height="30" fill="#eee" rx="5"/><rect x="150" y="280" width="209.75" height="30" fill="#ef4444" rx="5"/>
        <text x="140" y="300" text-anchor="end" class="row">actives.txt</text>
        <text x="660" y="300" text-anchor="start" class="score">42.0% (S:0%)</text><rect x="150" y="330" width="500" height="30" fill="#eee" rx="5"/><rect x="150" y="330" width="250.0" height="30" fill="#eab308" rx="5"/>
        <text x="140" y="350" text-anchor="end" class="row">V2RAY_SUB.txt</text>
        <text x="660" y="350" text-anchor="start" class="score">50.0% (S:0%)</text><rect x="150" y="380" width="500" height="30" fill="#eee" rx="5"/><rect x="150" y="380" width="94.1" height="30" fill="#ef4444" rx="5"/>
        <text x="140" y="400" text-anchor="end" class="row">sub.txt</text>
        <text x="660" y="400" text-anchor="start" class="score">18.8% (S:0%)</text><rect x="150" y="430" width="500" height="30" fill="#eee" rx="5"/><rect x="150" y="430" width="325.0" height="30" fill="#eab308" rx="5"/>
        <text x="140" y="450" text-anchor="end" class="row">Shenzo.txt</text>
        <text x="660" y="450" text-anchor="start" class="score">65.0% (S:0%)</text><rect x="150" y="480" width="500" height="30" fill="#eee" rx="5"/><rect x="150" y="480" width="75.0" height="30" fill="#ef4444" rx="5"/>
        <text x="140" y="500" text-anchor="end" class="row">data.txt</text>
        <text x="660" y="500" text-anchor="start" class="score">15.0% (S:0%)</text><rect x="150" y="530" width="500" height="30" fill="#eee" rx="5"/><rect x="150" y="530" width="213.9" height="30" fill="#ef4444" rx="5"/>
        <text x="140" y="550" text-anchor="end" class="row">MySub.txt</text>
        <text x="660" y="550" text-anchor="start" class="score">42.8% (S:0%)</text><rect x="150" y="580" width="500" height="30" fill="#eee" rx="5"/><rect x="150" y="580" width="75.0" height="30" fill="#ef4444" rx="5"/>
        <text x="140" y="600" text-anchor="end" class="row">data.txt</text>
        <text x="660" y="600" text-anchor="start" class="score">15.0% (S:0%)</text><rect x="150" y="630" width="500" height="30" fill="#eee" rx="5"/><rect x="150" y="630" width="325.0" height="30" fill="#eab308" rx="5"/>
        <text x="140" y="650" text-anchor="end" class="row">BeVpn.txt</text>
        <text x="660" y="650" text-anchor="start" class="score">65.0% (S:0%)</text><rect x="150" y="680" width="500" height="30" fill="#eee" rx="5"/><rect x="150" y="680" width="208.95" height="30" fill="#ef4444" rx="5"/>
        <text x="140" y="700" text-anchor="end" class="row">Sub.txt</text>
        <text x="660" y="700" text-anchor="start" class="score">41.8% (S:0%)</text><rect x="150" y="730" width="500" height="30" fill="#eee" rx="5"/><rect x="150" y="730" width="75.0" height="30" fill="#ef4444" rx="5"/>
        <text x="140" y="750" text-anchor="end" class="row">vless.txt</text>
        <text x="660" y="750" text-anchor="start" class="score">15.0% (S:0%)</text><rect x="150" y="780" width="500" height="30" fill="#eee" rx="5"/><rect x="150" y="780" width="325.0" height="30" fill="#eab308" rx="5"/>
        <text x="140" y="800" text-anchor="end" class="row">vmess.txt</text>
        <text x="660" y="800" text-anchor="start" class="score">65.0% (S:0%)</text><rect x="150" y="830" width="500" height="30" fill="#eee" rx="5"/><rect x="150" y="830" width="261.6" height="30" fill="#eab308" rx="5"/>
        <text x="140" y="850" text-anchor="end" class="row">data.txt</text>
        <text x="660" y="850" text-anchor="start" class="score">52.3% (S:0%)</text><rect x="150" y="880" width="500" height="30" fill="#eee" rx="5"/><rect x="150" y="880" width="228.29999999999998" height="30" fill="#ef4444" rx="5"/>
        <text x="140" y="900" text-anchor="end" class="row">data.txt</text>
        <text x="660" y="900" text-anchor="start" class="score">45.7% (S:0%)</text><rect x="150" y="930" width="500" height="30" fill="#eee" rx="5"/><rect x="150" y="930" width="112.10000000000001" height="30" fill="#ef4444" rx="5"/>
        <text x="140" y="950" text-anchor="end" class="row">data.txt</text>
        <text x="660" y="950" text-anchor="start" class="score">22.4% (S:0%)</text><rect x="150" y="980" width="500" height="30" fill="#eee" rx="5"/><rect x="150" y="980" width="208.1" height="30" fill="#ef4444" rx="5"/>
        <text x="140" y="1000" text-anchor="end" class="row">data.txt</text>
        <text x="660" y="1000" text-anchor="start" class="score">41.6% (S:0%)</text><rect x="150" y="1030" width="500" height="30" fill="#eee" rx="5"/><rect x="150" y="1030" width="160.85000000000002" height="30" fill="#ef4444" rx="5"/>
        <text x="140" y="1050" text-anchor="end" class="row">data.txt</text>
        <text x="660" y="1050" text-anchor="start" class="score">32.2% (S:0%)</text><rect x="150" y="1080" width="500" height="30" fill="#eee" rx="5"/><rect x="150" y="1080" width="75.0" height="30" fill="#ef4444" rx="5"/>
        <text x="140" y="1100" text-anchor="end" class="row">hysteria2.txt</text>
        <text x="660" y="1100" text-anchor="start" class="score">15.0% (S:0%)</text><rect x="150" y="1130" width="500" height="30" fill="#eee" rx="5"/><rect x="150" y="1130" width="76.10000000000001" height="30" fill="#ef4444" rx="5"/>
        <text x="140" y="1150" text-anchor="end" class="row">ss.txt</text>
        <text x="660" y="1150" text-anchor="start" class="score">15.2% (S:0%)</text><rect x="150" y="1180" width="500" height="30" fill="#eee" rx="5"/><rect x="150" y="1180" width="75.0" height="30" fill="#ef4444" rx="5"/>
        <text x="140" y="1200" text-anchor="end" class="row">ssr.txt</text>
        <text x="660" y="1200" text-anchor="start" class="score">15.0% (S:0%)</text><rect x="150" y="1230" width="500" height="30" fill="#eee" rx="5"/><rect x="150" y="1230" width="301.65" height="30" fill="#eab308" rx="5"/>
        <text x="140" y="1250" text-anchor="end" class="row">vmess.txt</text>
        <text x="660" y="1250" text-anchor="start" class="score">60.3% (S:0%)</text><rect x="150" y="1280" width="500" height="30" fill="#eee" rx="5"/><rect x="150" y="1280" width="75.1" height="30" fill="#ef4444" rx="5"/>
        <text x="140" y="1300" text-anchor="end" class="row">vless.txt</text>
        <text x="660" y="1300" text-anchor="start" class="score">15.0% (S:0%)</text><rect x="150" y="1330" width="500" height="30" fill="#eee" rx="5"/><rect x="150" y="1330" width="323.8" height="30" fill="#eab308" rx="5"/>
        <text x="140" y="1350" text-anchor="end" class="row">trojan.txt</text>
        <text x="660" y="1350" text-anchor="start" class="score">64.8% (S:0%)</text><rect x="150" y="1380" width="500" height="30" fill="#eee" rx="5"/><rect x="150" y="1380" width="325.0" height="30" fill="#eab308" rx="5"/>
        <text x="140" y="1400" text-anchor="end" class="row">vmess_iran.txt</text>
        <text x="660" y="1400" text-anchor="start" class="score">65.0% (S:0%)</text><rect x="150" y="1430" width="500" height="30" fill="#eee" rx="5"/><rect x="150" y="1430" width="75.0" height="30" fill="#ef4444" rx="5"/>
        <text x="140" y="1450" text-anchor="end" class="row">ss_iran.txt</text>
        <text x="660" y="1450" text-anchor="start" class="score">15.0% (S:0%)</text><rect x="150" y="1480" width="500" height="30" fill="#eee" rx="5"/><rect x="150" y="1480" width="325.0" height="30" fill="#eab308" rx="5"/>
        <text x="140" y="1500" text-anchor="end" class="row">trojan_iran.txt</text>
        <text x="660" y="1500" text-anchor="start" class="score">65.0% (S:0%)</text><rect x="150" y="1530" width="500" height="30" fill="#eee" rx="5"/><rect x="150" y="1530" width="75.0" height="30" fill="#ef4444" rx="5"/>
        <text x="140" y="1550" text-anchor="end" class="row">vless_iran.txt</text>
        <text x="660" y="1550" text-anchor="start" class="score">15.0% (S:0%)</text><rect x="150" y="1580" width="500" height="30" fill="#eee" rx="5"/><rect x="150" y="1580" width="200.95" height="30" fill="#ef4444" rx="5"/>
        <text x="140" y="1600" text-anchor="end" class="row">mixed_iran.txt</text>
        <text x="660" y="1600" text-anchor="start" class="score">40.2% (S:0%)</text><rect x="150" y="1630" width="500" height="30" fill="#eee" rx="5"/><rect x="150" y="1630" width="75.9" height="30" fill="#ef4444" rx="5"/>
        <text x="140" y="1650" text-anchor="end" class="row">ss.txt</text>
        <text x="660" y="1650" text-anchor="start" class="score">15.2% (S:0%)</text><rect x="150" y="1680" width="500" height="30" fill="#eee" rx="5"/><rect x="150" y="1680" width="75.0" height="30" fill="#ef4444" rx="5"/>
        <text x="140" y="1700" text-anchor="end" class="row">ssr.txt</text>
        <text x="660" y="1700" text-anchor="start" class="score">15.0% (S:0%)</text><rect x="150" y="1730" width="500" height="30" fill="#eee" rx="5"/><rect x="150" y="1730" width="75.0" height="30" fill="#ef4444" rx="5"/>
        <text x="140" y="1750" text-anchor="end" class="row">tuic.txt</text>
        <text x="660" y="1750" text-anchor="start" class="score">15.0% (S:0%)</text><rect x="150" y="1780" width="500" height="30" fill="#eee" rx="5"/><rect x="150" y="1780" width="75.1" height="30" fill="#ef4444" rx="5"/>
        <text x="140" y="1800" text-anchor="end" class="row">vless.txt</text>
        <text x="660" y="1800" text-anchor="start" class="score">15.0% (S:0%)</text><rect x="150" y="1830" width="500" height="30" fill="#eee" rx="5"/><rect x="150" y="1830" width="228.15" height="30" fill="#ef4444" rx="5"/>
        <text x="140" y="1850" text-anchor="end" class="row">vmess.txt</text>
        <text x="660" y="1850" text-anchor="start" class="score">45.6% (S:0%)</text><rect x="150" y="1880" width="500" height="30" fill="#eee" rx="5"/><rect x="150" y="1880" width="216.14999999999998" height="30" fill="#ef4444" rx="5"/>
        <text x="140" y="1900" text-anchor="end" class="row">trojan.txt</text>
        <text x="660" y="1900" text-anchor="start" class="score">43.2% (S:0%)</text><rect x="150" y="1930" width="500" height="30" fill="#eee" rx="5"/><rect x="150" y="1930" width="204.1" height="30" fill="#ef4444" rx="5"/>
        <text x="140" y="1950" text-anchor="end" class="row">b64mix.txt</text>
        <text x="660" y="1950" text-anchor="start" class="score">40.8% (S:0%)</text><rect x="150" y="1980" width="500" height="30" fill="#eee" rx="5"/><rect x="150" y="1980" width="75.0" height="30" fill="#ef4444" rx="5"/>
        <text x="140" y="2000" text-anchor="end" class="row">b64ss.txt</text>
        <text x="660" y="2000" text-anchor="start" class="score">15.0% (S:0%)</text><rect x="150" y="2030" width="500" height="30" fill="#eee" rx="5"/><rect x="150" y="2030" width="200.0" height="30" fill="#ef4444" rx="5"/>
        <text x="140" y="2050" text-anchor="end" class="row">b64vmess.txt</text>
        <text x="660" y="2050" text-anchor="start" class="score">40.0% (S:0%)</text><rect x="150" y="2080" width="500" height="30" fill="#eee" rx="5"/><rect x="150" y="2080" width="75.0" height="30" fill="#ef4444" rx="5"/>
        <text x="140" y="2100" text-anchor="end" class="row">b64vless.txt</text>
        <text x="660" y="2100" text-anchor="start" class="score">15.0% (S:0%)</text><rect x="150" y="2130" width="500" height="30" fill="#eee" rx="5"/><rect x="150" y="2130" width="75.0" height="30" fill="#ef4444" rx="5"/>
        <text x="140" y="2150" text-anchor="end" class="row">b64trojan.txt</text>
        <text x="660" y="2150" text-anchor="start" class="score">15.0% (S:0%)</text><rect x="150" y="2180" width="500" height="30" fill="#eee" rx="5"/><rect x="150" y="2180" width="217.35" height="30" fill="#ef4444" rx="5"/>
        <text x="140" y="2200" text-anchor="end" class="row">all.txt</text>
        <text x="660" y="2200" text-anchor="start" class="score">43.5% (S:0%)</text><rect x="150" y="2230" width="500" height="30" fill="#eee" rx="5"/><rect x="150" y="2230" width="211.95" height="30" fill="#ef4444" rx="5"/>
        <text x="140" y="2250" text-anchor="end" class="row">Latest_base64.txt</text>
        <text x="660" y="2250" text-anchor="start" class="score">42.4% (S:0%)</text><rect x="150" y="2280" width="500" height="30" fill="#eee" rx="5"/><rect x="150" y="2280" width="217.35" height="30" fill="#ef4444" rx="5"/>
        <text x="140" y="2300" text-anchor="end" class="row">nodes.txt</text>
        <text x="660" y="2300" text-anchor="start" class="score">43.5% (S:0%)</text><rect x="150" y="2330" width="500" height="30" fill="#eee" rx="5"/><rect x="150" y="2330" width="75.0" height="30" fill="#ef4444" rx="5"/>
        <text x="140" y="2350" text-anchor="end" class="row">all.txt</text>
        <text x="660" y="2350" text-anchor="start" class="score">15.0% (S:0%)</text><rect x="150" y="2380" width="500" height="30" fill="#eee" rx="5"/><rect x="150" y="2380" width="75.0" height="30" fill="#ef4444" rx="5"/>
        <text x="140" y="2400" text-anchor="end" class="row">ss.txt</text>
        <text x="660" y="2400" text-anchor="start" class="score">15.0% (S:0%)</text><rect x="150" y="2430" width="500" height="30" fill="#eee" rx="5"/><rect x="150" y="2430" width="75.0" height="30" fill="#ef4444" rx="5"/>
        <text x="140" y="2450" text-anchor="end" class="row">ssr.txt</text>
        <text x="660" y="2450" text-anchor="start" class="score">15.0% (S:0%)</text><rect x="150" y="2480" width="500" height="30" fill="#eee" rx="5"/><rect x="150" y="2480" width="75.0" height="30" fill="#ef4444" rx="5"/>
        <text x="140" y="2500" text-anchor="end" class="row">vless.txt</text>
        <text x="660" y="2500" text-anchor="start" class="score">15.0% (S:0%)</text><rect x="150" y="2530" width="500" height="30" fill="#eee" rx="5"/><rect x="150" y="2530" width="75.0" height="30" fill="#ef4444" rx="5"/>
        <text x="140" y="2550" text-anchor="end" class="row">vmess.txt</text>
        <text x="660" y="2550" text-anchor="start" class="score">15.0% (S:0%)</text><rect x="150" y="2580" width="500" height="30" fill="#eee" rx="5"/><rect x="150" y="2580" width="75.0" height="30" fill="#ef4444" rx="5"/>
        <text x="140" y="2600" text-anchor="end" class="row">trojan.txt</text>
        <text x="660" y="2600" text-anchor="start" class="score">15.0% (S:0%)</text><rect x="150" y="2630" width="500" height="30" fill="#eee" rx="5"/><rect x="150" y="2630" width="75.0" height="30" fill="#ef4444" rx="5"/>
        <text x="140" y="2650" text-anchor="end" class="row">0-20240822.txt</text>
        <text x="660" y="2650" text-anchor="start" class="score">15.0% (S:0%)</text><rect x="150" y="2680" width="500" height="30" fill="#eee" rx="5"/><rect x="150" y="2680" width="75.0" height="30" fill="#ef4444" rx="5"/>
        <text x="140" y="2700" text-anchor="end" class="row">1-20240822.txt</text>
        <text x="660" y="2700" text-anchor="start" class="score">15.0% (S:0%)</text><rect x="150" y="2730" width="500" height="30" fill="#eee" rx="5"/><rect x="150" y="2730" width="75.0" height="30" fill="#ef4444" rx="5"/>
        <text x="140" y="2750" text-anchor="end" class="row">2-20240822.txt</text>
        <text x="660" y="2750" text-anchor="start" class="score">15.0% (S:0%)</text><rect x="150" y="2780" width="500" height="30" fill="#eee" rx="5"/><rect x="150" y="2780" width="75.0" height="30" fill="#ef4444" rx="5"/>
        <text x="140" y="2800" text-anchor="end" class="row">3-20240822.txt</text>
        <text x="660" y="2800" text-anchor="start" class="score">15.0% (S:0%)</text><rect x="150" y="2830" width="500" height="30" fill="#eee" rx="5"/><rect x="150" y="2830" width="75.0" height="30" fill="#ef4444" rx="5"/>
        <text x="140" y="2850" text-anchor="end" class="row">4-20240822.txt</text>
        <text x="660" y="2850" text-anchor="start" class="score">15.0% (S:0%)</text><rect x="150" y="2880" width="500" height="30" fill="#eee" rx="5"/><rect x="150" y="2880" width="242.5" height="30" fill="#ef4444" rx="5"/>
        <text x="140" y="2900" text-anchor="end" class="row">20221208.txt</text>
        <text x="660" y="2900" text-anchor="start" class="score">48.5% (S:0%)</text><rect x="150" y="2930" width="500" height="30" fill="#eee" rx="5"/><rect x="150" y="2930" width="75.0" height="30" fill="#ef4444" rx="5"/>
        <text x="140" y="2950" text-anchor="end" class="row">20230310.txt</text>
        <text x="660" y="2950" text-anchor="start" class="score">15.0% (S:0%)</text><rect x="150" y="2980" width="500" height="30" fill="#eee" rx="5"/><rect x="150" y="2980" width="225.9" height="30" fill="#ef4444" rx="5"/>
        <text x="140" y="3000" text-anchor="end" class="row">config.txt</text>
        <text x="660" y="3000" text-anchor="start" class="score">45.2% (S:0%)</text><rect x="150" y="3030" width="500" height="30" fill="#eee" rx="5"/><rect x="150" y="3030" width="75.0" height="30" fill="#ef4444" rx="5"/>
        <text x="140" y="3050" text-anchor="end" class="row">reality.txt</text>
        <text x="660" y="3050" text-anchor="start" class="score">15.0% (S:0%)</text><rect x="150" y="3080" width="500" height="30" fill="#eee" rx="5"/><rect x="150" y="3080" width="75.0" height="30" fill="#ef4444" rx="5"/>
        <text x="140" y="3100" text-anchor="end" class="row">VL100.txt</text>
        <text x="660" y="3100" text-anchor="start" class="score">15.0% (S:0%)</text><rect x="150" y="3130" width="500" height="30" fill="#eee" rx="5"/><rect x="150" y="3130" width="324.25" height="30" fill="#eab308" rx="5"/>
        <text x="140" y="3150" text-anchor="end" class="row">hysteria</text>
        <text x="660" y="3150" text-anchor="start" class="score">64.8% (S:0%)</text><rect x="150" y="3180" width="500" height="30" fill="#eee" rx="5"/><rect x="150" y="3180" width="75.1" height="30" fill="#ef4444" rx="5"/>
        <text x="140" y="3200" text-anchor="end" class="row">vless.txt</text>
        <text x="660" y="3200" text-anchor="start" class="score">15.0% (S:0%)</text><rect x="150" y="3230" width="500" height="30" fill="#eee" rx="5"/><rect x="150" y="3230" width="199.75" height="30" fill="#ef4444" rx="5"/>
        <text x="140" y="3250" text-anchor="end" class="row">trojan.txt</text>
        <text x="660" y="3250" text-anchor="start" class="score">40.0% (S:0%)</text><rect x="150" y="3280" width="500" height="30" fill="#eee" rx="5"/><rect x="150" y="3280" width="75.1" height="30" fill="#ef4444" rx="5"/>
        <text x="140" y="3300" text-anchor="end" class="row">vless.txt</text>
        <text x="660" y="3300" text-anchor="start" class="score">15.0% (S:0%)</text><rect x="150" y="3330" width="500" height="30" fill="#eee" rx="5"/><rect x="150" y="3330" width="199.8" height="30" fill="#ef4444" rx="5"/>
        <text x="140" y="3350" text-anchor="end" class="row">trojan.txt</text>
        <text x="660" y="3350" text-anchor="start" class="score">40.0% (S:0%)</text><rect x="150" y="3380" width="500" height="30" fill="#eee" rx="5"/><rect x="150" y="3380" width="208.9" height="30" fill="#ef4444" rx="5"/>
        <text x="140" y="3400" text-anchor="end" class="row">wstls_base64</text>
        <text x="660" y="3400" text-anchor="start" class="score">41.8% (S:0%)</text><rect x="150" y="3430" width="500" height="30" fill="#eee" rx="5"/><rect x="150" y="3430" width="296.45" height="30" fill="#eab308" rx="5"/>
        <text x="140" y="3450" text-anchor="end" class="row">udp.txt</text>
        <text x="660" y="3450" text-anchor="start" class="score">59.3% (S:0%)</text><rect x="150" y="3480" width="500" height="30" fill="#eee" rx="5"/><rect x="150" y="3480" width="200.7" height="30" fill="#ef4444" rx="5"/>
        <text x="140" y="3500" text-anchor="end" class="row">vless</text>
        <text x="660" y="3500" text-anchor="start" class="score">40.1% (S:0%)</text><rect x="150" y="3530" width="500" height="30" fill="#eee" rx="5"/><rect x="150" y="3530" width="75.0" height="30" fill="#ef4444" rx="5"/>
        <text x="140" y="3550" text-anchor="end" class="row">mix-security-re</text>
        <text x="660" y="3550" text-anchor="start" class="score">15.0% (S:0%)</text><rect x="150" y="3580" width="500" height="30" fill="#eee" rx="5"/><rect x="150" y="3580" width="221.64999999999998" height="30" fill="#ef4444" rx="5"/>
        <text x="140" y="3600" text-anchor="end" class="row">mix-security-tl</text>
        <text x="660" y="3600" text-anchor="start" class="score">44.3% (S:0%)</text><rect x="150" y="3630" width="500" height="30" fill="#eee" rx="5"/><rect x="150" y="3630" width="75.0" height="30" fill="#ef4444" rx="5"/>
        <text x="140" y="3650" text-anchor="end" class="row">mix-network-xh</text>
        <text x="660" y="3650" text-anchor="start" class="score">15.0% (S:0%)</text><rect x="150" y="3680" width="500" height="30" fill="#eee" rx="5"/><rect x="150" y="3680" width="78.05" height="30" fill="#ef4444" rx="5"/>
        <text x="140" y="3700" text-anchor="end" class="row">mix-network-gr</text>
        <text x="660" y="3700" text-anchor="start" class="score">15.6% (S:0%)</text><rect x="150" y="3730" width="500" height="30" fill="#eee" rx="5"/><rect x="150" y="3730" width="75.0" height="30" fill="#ef4444" rx="5"/>
        <text x="140" y="3750" text-anchor="end" class="row">one_file_vpn.txt</text>
        <text x="660" y="3750" text-anchor="start" class="score">15.0% (S:0%)</text><rect x="150" y="3780" width="500" height="30" fill="#eee" rx="5"/><rect x="150" y="3780" width="246.45" height="30" fill="#ef4444" rx="5"/>
        <text x="140" y="3800" text-anchor="end" class="row">two_file_vpn.txt</text>
        <text x="660" y="3800" text-anchor="start" class="score">49.3% (S:0%)</text><rect x="150" y="3830" width="500" height="30" fill="#eee" rx="5"/><rect x="150" y="3830" width="199.25" height="30" fill="#ef4444" rx="5"/>
        <text x="140" y="3850" text-anchor="end" class="row">hysteria</text>
        <text x="660" y="3850" text-anchor="start" class="score">39.9% (S:0%)</text><rect x="150" y="3880" width="500" height="30" fill="#eee" rx="5"/><rect x="150" y="3880" width="204.7" height="30" fill="#ef4444" rx="5"/>
        <text x="140" y="3900" text-anchor="end" class="row">hysteria</text>
        <text x="660" y="3900" text-anchor="start" class="score">40.9% (S:0%)</text><rect x="150" y="3930" width="500" height="30" fill="#eee" rx="5"/><rect x="150" y="3930" width="75.0" height="30" fill="#ef4444" rx="5"/>
        <text x="140" y="3950" text-anchor="end" class="row">reality</text>
        <text x="660" y="3950" text-anchor="start" class="score">15.0% (S:0%)</text><rect x="150" y="3980" width="500" height="30" fill="#eee" rx="5"/><rect x="150" y="3980" width="75.0" height="30" fill="#ef4444" rx="5"/>
        <text x="140" y="4000" text-anchor="end" class="row">reality</text>
        <text x="660" y="4000" text-anchor="start" class="score">15.0% (S:0%)</text><rect x="150" y="4030" width="500" height="30" fill="#eee" rx="5"/><rect x="150" y="4030" width="75.0" height="30" fill="#ef4444" rx="5"/>
        <text x="140" y="4050" text-anchor="end" class="row">vless</text>
        <text x="660" y="4050" text-anchor="start" class="score">15.0% (S:0%)</text><rect x="150" y="4080" width="500" height="30" fill="#eee" rx="5"/><rect x="150" y="4080" width="75.0" height="30" fill="#ef4444" rx="5"/>
        <text x="140" y="4100" text-anchor="end" class="row">vless</text>
        <text x="660" y="4100" text-anchor="start" class="score">15.0% (S:0%)</text><rect x="150" y="4130" width="500" height="30" fill="#eee" rx="5"/><rect x="150" y="4130" width="195.75" height="30" fill="#ef4444" rx="5"/>
        <text x="140" y="4150" text-anchor="end" class="row">tuic</text>
        <text x="660" y="4150" text-anchor="start" class="score">39.1% (S:0%)</text><rect x="150" y="4180" width="500" height="30" fill="#eee" rx="5"/><rect x="150" y="4180" width="190.75" height="30" fill="#ef4444" rx="5"/>
        <text x="140" y="4200" text-anchor="end" class="row">tuic</text>
        <text x="660" y="4200" text-anchor="start" class="score">38.1% (S:0%)</text></svg>