<?xml version="1.0" encoding="UTF-8"?>
    <svg width="800" height="7650" version="1.1" xmlns="http://www.w3.org/2000/svg">
    <style>
        .row { font: 14px Arial; fill: #64748b; }
        .score { font: bold 14px Arial; fill: #64748b; }
    </style>
    <text x="400" y="40" text-anchor="middle" font-size="20px" font-weight="bold" fill="#64748b">Channel Performance Overview</text><rect x="150" y="80" width="500" height="30" fill="#eee" rx="5"/><rect x="150" y="80" width="0.0" height="30" fill="#ef4444" rx="5"/>
        <text x="140" y="100" text-anchor="end" class="row">v2ray_free_conf</text>
        <text x="660" y="100" text-anchor="start" class="score">0.0% (S:0%)</text><rect x="150" y="130" width="500" height="30" fill="#eee" rx="5"/><rect x="150" y="130" width="0.0" height="30" fill="#ef4444" rx="5"/>
        <text x="140" y="150" text-anchor="end" class="row">ShadowProxy66</text>
        <text x="660" y="150" text-anchor="start" class="score">0.0% (S:0%)</text><rect x="150" y="180" width="500" height="30" fill="#eee" rx="5"/><rect x="150" y="180" width="0.0" height="30" fill="#ef4444" rx="5"/>
        <text x="140" y="200" text-anchor="end" class="row">OutlineReleasedKey</text>
        <text x="660" y="200" text-anchor="start" class="score">0.0% (S:0%)</text><rect x="150" y="230" width="500" height="30" fill="#eee" rx="5"/><rect x="150" y="230" width="0.0" height="30" fill="#ef4444" rx="5"/>
        <text x="140" y="250" text-anchor="end" class="row">PrivateVPNs</text>
        <text x="660" y="250" text-anchor="start" class="score">0.0% (S:0%)</text><rect x="150" y="280" width="500" height="30" fill="#eee" rx="5"/><rect x="150" y="280" width="0.0" height="30" fill="#ef4444" rx="5"/>
        <text x="140" y="300" text-anchor="end" class="row">prrofile_purple</text>
        <text x="660" y="300" text-anchor="start" class="score">0.0% (S:0%)</text><rect x="150" y="330" width="500" height="30" fill="#eee" rx="5"/><rect x="150" y="330" width="0.0" height="30" fill="#ef4444" rx="5"/>
        <text x="140" y="350" text-anchor="end" class="row">proxy_shadosocks</text>
        <text x="660" y="350" text-anchor="start" class="score">0.0% (S:0%)</text><rect x="150" y="380" width="500" height="30" fill="#eee" rx="5"/><rect x="150" y="380" width="0.0" height="30" fill="#ef4444" rx="5"/>
        <text x="140" y="400" text-anchor="end" class="row">DirectVPN</text>
        <text x="660" y="400" text-anchor="start" class="score">0.0% (S:0%)</text><rect x="150" y="430" width="500" height="30" fill="#eee" rx="5"/><rect x="150" y="430" width="0.0" height="30" fill="#ef4444" rx="5"/>
        <text x="140" y="450" text-anchor="end" class="row">VmessProtocol</text>
        <text x="660" y="450" text-anchor="start" class="score">0.0% (S:0%)</text><rect x="150" y="480" width="500" height="30" fill="#eee" rx="5"/><rect x="150" y="480" width="0.0" height="30" fill="#ef4444" rx="5"/>
        <text x="140" y="500" text-anchor="end" class="row">vpnfail_v2ray</text>
        <text x="660" y="500" text-anchor="start" class="score">0.0% (S:0%)</text><rect x="150" y="530" width="500" height="30" fill="#eee" rx="5"/><rect x="150" y="530" width="0.0" height="30" fill="#ef4444" rx="5"/>
        <text x="140" y="550" text-anchor="end" class="row">vpnkanfik</text>
        <text x="660" y="550" text-anchor="start" class="score">0.0% (S:0%)</text><rect x="150" y="580" width="500" height="30" fill="#eee" rx="5"/><rect x="150" y="580" width="0.0" height="30" fill="#ef4444" rx="5"/>
        <text x="140" y="600" text-anchor="end" class="row">vpnmega1</text>
        <text x="660" y="600" text-anchor="start" class="score">0.0% (S:0%)</text><rect x="150" y="630" width="500" height="30" fill="#eee" rx="5"/><rect x="150" y="630" width="0.0" height="30" fill="#ef4444" rx="5"/>
        <text x="140" y="650" text-anchor="end" class="row">vpnowl</text>
        <text x="660" y="650" text-anchor="start" class="score">0.0% (S:0%)</text><rect x="150" y="680" width="500" height="30" fill="#eee" rx="5"/><rect x="150" y="680" width="0.0" height="30" fill="#ef4444" rx="5"/>
        <text x="140" y="700" text-anchor="end" class="row">vpnx1x</text>
        <text x="660" y="700" text-anchor="start" class="score">0.0% (S:0%)</text><rect x="150" y="730" width="500" height="30" fill="#eee" rx="5"/><rect x="150" y="730" width="0.0" height="30" fill="#ef4444" rx="5"/>
        <text x="140" y="750" text-anchor="end" class="row">wxgmrjdcc</text>
        <text x="660" y="750" text-anchor="start" class="score">0.0% (S:0%)</text><rect x="150" y="780" width="500" height="30" fill="#eee" rx="5"/><rect x="150" y="780" width="0.0" height="30" fill="#ef4444" rx="5"/>
        <text x="140" y="800" text-anchor="end" class="row">zibanabz</text>
        <text x="660" y="800" text-anchor="start" class="score">0.0% (S:0%)</text><rect x="150" y="830" width="500" height="30" fill="#eee" rx="5"/><rect x="150" y="830" width="0.0" height="30" fill="#ef4444" rx="5"/>
        <text x="140" y="850" text-anchor="end" class="row">antifilterjadid</text>
        <text x="660" y="850" text-anchor="start" class="score">0.0% (S:0%)</text><rect x="150" y="880" width="500" height="30" fill="#eee" rx="5"/><rect x="150" y="880" width="0.0" height="30" fill="#ef4444" rx="5"/>
        <text x="140" y="900" text-anchor="end" class="row">canfigv2ray</text>
        <text x="660" y="900" text-anchor="start" class="score">0.0% (S:0%)</text><rect x="150" y="930" width="500" height="30" fill="#eee" rx="5"/><rect x="150" y="930" width="0.0" height="30" fill="#ef4444" rx="5"/>
        <text x="140" y="950" text-anchor="end" class="row">cnlv2rayng</text>
        <text x="660" y="950" text-anchor="start" class="score">0.0% (S:0%)</text><rect x="150" y="980" width="500" height="30" fill="#eee" rx="5"/><rect x="150" y="980" width="75.0" height="30" fill="#ef4444" rx="5"/>
        <text x="140" y="1000" text-anchor="end" class="row">configshub</text>
        <text x="660" y="1000" text-anchor="start" class="score">15.0% (S:0%)</text><rect x="150" y="1030" width="500" height="30" fill="#eee" rx="5"/><rect x="150" y="1030" width="0.0" height="30" fill="#ef4444" rx="5"/>
        <text x="140" y="1050" text-anchor="end" class="row">customv2ray</text>
        <text x="660" y="1050" text-anchor="start" class="score">0.0% (S:0%)</text><rect x="150" y="1080" width="500" height="30" fill="#eee" rx="5"/><rect x="150" y="1080" width="0.0" height="30" fill="#ef4444" rx="5"/>
        <text x="140" y="1100" text-anchor="end" class="row">dgkbza</text>
        <text x="660" y="1100" text-anchor="start" class="score">0.0% (S:0%)</text><rect x="150" y="1130" width="500" height="30" fill="#eee" rx="5"/><rect x="150" y="1130" width="0.0" height="30" fill="#ef4444" rx="5"/>
        <text x="140" y="1150" text-anchor="end" class="row">elitevpnv2</text>
        <text x="660" y="1150" text-anchor="start" class="score">0.0% (S:0%)</text><rect x="150" y="1180" width="500" height="30" fill="#eee" rx="5"/><rect x="150" y="1180" width="0.0" height="30" fill="#ef4444" rx="5"/>
        <text x="140" y="1200" text-anchor="end" class="row">entrynet</text>
        <text x="660" y="1200" text-anchor="start" class="score">0.0% (S:0%)</text><rect x="150" y="1230" width="500" height="30" fill="#eee" rx="5"/><rect x="150" y="1230" width="0.0" height="30" fill="#ef4444" rx="5"/>
        <text x="140" y="1250" text-anchor="end" class="row">expressvpn_420</text>
        <text x="660" y="1250" text-anchor="start" class="score">0.0% (S:0%)</text><rect x="150" y="1280" width="500" height="30" fill="#eee" rx="5"/><rect x="150" y="1280" width="0.0" height="30" fill="#ef4444" rx="5"/>
        <text x="140" y="1300" text-anchor="end" class="row">external_net</text>
        <text x="660" y="1300" text-anchor="start" class="score">0.0% (S:0%)</text><rect x="150" y="1330" width="500" height="30" fill="#eee" rx="5"/><rect x="150" y="1330" width="0.0" height="30" fill="#ef4444" rx="5"/>
        <text x="140" y="1350" text-anchor="end" class="row">farahvpn</text>
        <text x="660" y="1350" text-anchor="start" class="score">0.0% (S:0%)</text><rect x="150" y="1380" width="500" height="30" fill="#eee" rx="5"/><rect x="150" y="1380" width="0.0" height="30" fill="#ef4444" rx="5"/>
        <text x="140" y="1400" text-anchor="end" class="row">fast_2ray</text>
        <text x="660" y="1400" text-anchor="start" class="score">0.0% (S:0%)</text><rect x="150" y="1430" width="500" height="30" fill="#eee" rx="5"/><rect x="150" y="1430" width="0.0" height="30" fill="#ef4444" rx="5"/>
        <text x="140" y="1450" text-anchor="end" class="row">fastkanfig</text>
        <text x="660" y="1450" text-anchor="start" class="score">0.0% (S:0%)</text><rect x="150" y="1480" width="500" height="30" fill="#eee" rx="5"/><rect x="150" y="1480" width="0.0" height="30" fill="#ef4444" rx="5"/>
        <text x="140" y="1500" text-anchor="end" class="row">flyv2ray</text>
        <text x="660" y="1500" text-anchor="start" class="score">0.0% (S:0%)</text><rect x="150" y="1530" width="500" height="30" fill="#eee" rx="5"/><rect x="150" y="1530" width="0.0" height="30" fill="#ef4444" rx="5"/>
        <text x="140" y="1550" text-anchor="end" class="row">free1_vpn</text>
        <text x="660" y="1550" text-anchor="start" class="score">0.0% (S:0%)</text><rect x="150" y="1580" width="500" height="30" fill="#eee" rx="5"/><rect x="150" y="1580" width="0.0" height="30" fill="#ef4444" rx="5"/>
        <text x="140" y="1600" text-anchor="end" class="row">freeconfig01</text>
        <text x="660" y="1600" text-anchor="start" class="score">0.0% (S:0%)</text><rect x="150" y="1630" width="500" height="30" fill="#eee" rx="5"/><rect x="150" y="1630" width="0.0" height="30" fill="#ef4444" rx="5"/>
        <text x="140" y="1650" text-anchor="end" class="row">freevirgoolnet</text>
        <text x="660" y="1650" text-anchor="start" class="score">0.0% (S:0%)</text><rect x="150" y="1680" width="500" height="30" fill="#eee" rx="5"/><rect x="150" y="1680" width="0.0" height="30" fill="#ef4444" rx="5"/>
        <text x="140" y="1700" text-anchor="end" class="row">gh_v2rayng</text>
        <text x="660" y="1700" text-anchor="start" class="score">0.0% (S:0%)</text><rect x="150" y="1730" width="500" height="30" fill="#eee" rx="5"/><rect x="150" y="1730" width="0.0" height="30" fill="#ef4444" rx="5"/>
        <text x="140" y="1750" text-anchor="end" class="row">givevpn</text>
        <text x="660" y="1750" text-anchor="start" class="score">0.0% (S:0%)</text><rect x="150" y="1780" width="500" height="30" fill="#eee" rx="5"/><rect x="150" y="1780" width="0.0" height="30" fill="#ef4444" rx="5"/>
        <text x="140" y="1800" text-anchor="end" class="row">guard_revil</text>
        <text x="660" y="1800" text-anchor="start" class="score">0.0% (S:0%)</text><rect x="150" y="1830" width="500" height="30" fill="#eee" rx="5"/><rect x="150" y="1830" width="0.0" height="30" fill="#ef4444" rx="5"/>
        <text x="140" y="1850" text-anchor="end" class="row">hiddenvpnchannel</text>
        <text x="660" y="1850" text-anchor="start" class="score">0.0% (S:0%)</text><rect x="150" y="1880" width="500" height="30" fill="#eee" rx="5"/><rect x="150" y="1880" width="75.0" height="30" fill="#ef4444" rx="5"/>
        <text x="140" y="1900" text-anchor="end" class="row">hl_proxy</text>
        <text x="660" y="1900" text-anchor="start" class="score">15.0% (S:0%)</text><rect x="150" y="1930" width="500" height="30" fill="#eee" rx="5"/><rect x="150" y="1930" width="0.0" height="30" fill="#ef4444" rx="5"/>
        <text x="140" y="1950" text-anchor="end" class="row">hope_net</text>
        <text x="660" y="1950" text-anchor="start" class="score">0.0% (S:0%)</text><rect x="150" y="1980" width="500" height="30" fill="#eee" rx="5"/><rect x="150" y="1980" width="0.0" height="30" fill="#ef4444" rx="5"/>
        <text x="140" y="2000" text-anchor="end" class="row">hopev2ray</text>
        <text x="660" y="2000" text-anchor="start" class="score">0.0% (S:0%)</text><rect x="150" y="2030" width="500" height="30" fill="#eee" rx="5"/><rect x="150" y="2030" width="0.0" height="30" fill="#ef4444" rx="5"/>
        <text x="140" y="2050" text-anchor="end" class="row">huiguo62</text>
        <text x="660" y="2050" text-anchor="start" class="score">0.0% (S:0%)</text><rect x="150" y="2080" width="500" height="30" fill="#eee" rx="5"/><rect x="150" y="2080" width="0.0" height="30" fill="#ef4444" rx="5"/>
        <text x="140" y="2100" text-anchor="end" class="row">IP_CF_Config</text>
        <text x="660" y="2100" text-anchor="start" class="score">0.0% (S:0%)</text><rect x="150" y="2130" width="500" height="30" fill="#eee" rx="5"/><rect x="150" y="2130" width="0.0" height="30" fill="#ef4444" rx="5"/>
        <text x="140" y="2150" text-anchor="end" class="row">irv2rey</text>
        <text x="660" y="2150" text-anchor="start" class="score">0.0% (S:0%)</text><rect x="150" y="2180" width="500" height="30" fill="#eee" rx="5"/><rect x="150" y="2180" width="0.0" height="30" fill="#ef4444" rx="5"/>
        <text x="140" y="2200" text-anchor="end" class="row">jiedianf</text>
        <text x="660" y="2200" text-anchor="start" class="score">0.0% (S:0%)</text><rect x="150" y="2230" width="500" height="30" fill="#eee" rx="5"/><rect x="150" y="2230" width="0.0" height="30" fill="#ef4444" rx="5"/>
        <text x="140" y="2250" text-anchor="end" class="row">jiujied</text>
        <text x="660" y="2250" text-anchor="start" class="score">0.0% (S:0%)</text><rect x="150" y="2280" width="500" height="30" fill="#eee" rx="5"/><rect x="150" y="2280" width="0.0" height="30" fill="#ef4444" rx="5"/>
        <text x="140" y="2300" text-anchor="end" class="row">king_network7</text>
        <text x="660" y="2300" text-anchor="start" class="score">0.0% (S:0%)</text><rect x="150" y="2330" width="500" height="30" fill="#eee" rx="5"/><rect x="150" y="2330" width="0.0" height="30" fill="#ef4444" rx="5"/>
        <text x="140" y="2350" text-anchor="end" class="row">kingofilter</text>
        <text x="660" y="2350" text-anchor="start" class="score">0.0% (S:0%)</text><rect x="150" y="2380" width="500" height="30" fill="#eee" rx="5"/><rect x="150" y="2380" width="0.0" height="30" fill="#ef4444" rx="5"/>
        <text x="140" y="2400" text-anchor="end" class="row">kurdistan_vpn_perfectt</text>
        <text x="660" y="2400" text-anchor="start" class="score">0.0% (S:0%)</text><rect x="150" y="2430" width="500" height="30" fill="#eee" rx="5"/><rect x="150" y="2430" width="0.0" height="30" fill="#ef4444" rx="5"/>
        <text x="140" y="2450" text-anchor="end" class="row">lonup_m</text>
        <text x="660" y="2450" text-anchor="start" class="score">0.0% (S:0%)</text><rect x="150" y="2480" width="500" height="30" fill="#eee" rx="5"/><rect x="150" y="2480" width="0.0" height="30" fill="#ef4444" rx="5"/>
        <text x="140" y="2500" text-anchor="end" class="row">masirbazz</text>
        <text x="660" y="2500" text-anchor="start" class="score">0.0% (S:0%)</text><rect x="150" y="2530" width="500" height="30" fill="#eee" rx="5"/><rect x="150" y="2530" width="0.0" height="30" fill="#ef4444" rx="5"/>
        <text x="140" y="2550" text-anchor="end" class="row">meli_proxyy</text>
        <text x="660" y="2550" text-anchor="start" class="score">0.0% (S:0%)</text><rect x="150" y="2580" width="500" height="30" fill="#eee" rx="5"/><rect x="150" y="2580" width="0.0" height="30" fill="#ef4444" rx="5"/>
        <text x="140" y="2600" text-anchor="end" class="row">moftinet</text>
        <text x="660" y="2600" text-anchor="start" class="score">0.0% (S:0%)</text><rect x="150" y="2630" width="500" height="30" fill="#eee" rx="5"/><rect x="150" y="2630" width="0.0" height="30" fill="#ef4444" rx="5"/>
        <text x="140" y="2650" text-anchor="end" class="row">mtpproxy0098</text>
        <text x="660" y="2650" text-anchor="start" class="score">0.0% (S:0%)</text><rect x="150" y="2680" width="500" height="30" fill="#eee" rx="5"/><rect x="150" y="2680" width="0.0" height="30" fill="#ef4444" rx="5"/>
        <text x="140" y="2700" text-anchor="end" class="row">new_mtproxi2</text>
        <text x="660" y="2700" text-anchor="start" class="score">0.0% (S:0%)</text><rect x="150" y="2730" width="500" height="30" fill="#eee" rx="5"/><rect x="150" y="2730" width="0.0" height="30" fill="#ef4444" rx="5"/>
        <text x="140" y="2750" text-anchor="end" class="row">nofiltering2</text>
        <text x="660" y="2750" text-anchor="start" class="score">0.0% (S:0%)</text><rect x="150" y="2780" width="500" height="30" fill="#eee" rx="5"/><rect x="150" y="2780" width="0.0" height="30" fill="#ef4444" rx="5"/>
        <text x="140" y="2800" text-anchor="end" class="row">outline_ir</text>
        <text x="660" y="2800" text-anchor="start" class="score">0.0% (S:0%)</text><rect x="150" y="2830" width="500" height="30" fill="#eee" rx="5"/><rect x="150" y="2830" width="0.0" height="30" fill="#ef4444" rx="5"/>
        <text x="140" y="2850" text-anchor="end" class="row">poroxybaz</text>
        <text x="660" y="2850" text-anchor="start" class="score">0.0% (S:0%)</text><rect x="150" y="2880" width="500" height="30" fill="#eee" rx="5"/><rect x="150" y="2880" width="0.0" height="30" fill="#ef4444" rx="5"/>
        <text x="140" y="2900" text-anchor="end" class="row">proxy_v2box</text>
        <text x="660" y="2900" text-anchor="start" class="score">0.0% (S:0%)</text><rect x="150" y="2930" width="500" height="30" fill="#eee" rx="5"/><rect x="150" y="2930" width="0.0" height="30" fill="#ef4444" rx="5"/>
        <text x="140" y="2950" text-anchor="end" class="row">prroxyng</text>
        <text x="660" y="2950" text-anchor="start" class="score">0.0% (S:0%)</text><rect x="150" y="2980" width="500" height="30" fill="#eee" rx="5"/><rect x="150" y="2980" width="0.0" height="30" fill="#ef4444" rx="5"/>
        <text x="140" y="3000" text-anchor="end" class="row">satafkompani</text>
        <text x="660" y="3000" text-anchor="start" class="score">0.0% (S:0%)</text><rect x="150" y="3030" width="500" height="30" fill="#eee" rx="5"/><rect x="150" y="3030" width="0.0" height="30" fill="#ef4444" rx="5"/>
        <text x="140" y="3050" text-anchor="end" class="row">satellitenewspersian</text>
        <text x="660" y="3050" text-anchor="start" class="score">0.0% (S:0%)</text><rect x="150" y="3080" width="500" height="30" fill="#eee" rx="5"/><rect x="150" y="3080" width="0.0" height="30" fill="#ef4444" rx="5"/>
        <text x="140" y="3100" text-anchor="end" class="row">server_nekobox</text>
        <text x="660" y="3100" text-anchor="start" class="score">0.0% (S:0%)</text><rect x="150" y="3130" width="500" height="30" fill="#eee" rx="5"/><rect x="150" y="3130" width="0.0" height="30" fill="#ef4444" rx="5"/>
        <text x="140" y="3150" text-anchor="end" class="row">shadowsockskeys</text>
        <text x="660" y="3150" text-anchor="start" class="score">0.0% (S:0%)</text><rect x="150" y="3180" width="500" height="30" fill="#eee" rx="5"/><rect x="150" y="3180" width="0.0" height="30" fill="#ef4444" rx="5"/>
        <text x="140" y="3200" text-anchor="end" class="row">skivpn</text>
        <text x="660" y="3200" text-anchor="start" class="score">0.0% (S:0%)</text><rect x="150" y="3230" width="500" height="30" fill="#eee" rx="5"/><rect x="150" y="3230" width="0.0" height="30" fill="#ef4444" rx="5"/>
        <text x="140" y="3250" text-anchor="end" class="row">socks5tobefree</text>
        <text x="660" y="3250" text-anchor="start" class="score">0.0% (S:0%)</text><rect x="150" y="3280" width="500" height="30" fill="#eee" rx="5"/><rect x="150" y="3280" width="0.0" height="30" fill="#ef4444" rx="5"/>
        <text x="140" y="3300" text-anchor="end" class="row">strongprotocol</text>
        <text x="660" y="3300" text-anchor="start" class="score">0.0% (S:0%)</text><rect x="150" y="3330" width="500" height="30" fill="#eee" rx="5"/><rect x="150" y="3330" width="0.0" height="30" fill="#ef4444" rx="5"/>
        <text x="140" y="3350" text-anchor="end" class="row">tehranargo</text>
        <text x="660" y="3350" text-anchor="start" class="score">0.0% (S:0%)</text><rect x="150" y="3380" width="500" height="30" fill="#eee" rx="5"/><rect x="150" y="3380" width="0.0" height="30" fill="#ef4444" rx="5"/>
        <text x="140" y="3400" text-anchor="end" class="row">uvpn_org</text>
        <text x="660" y="3400" text-anchor="start" class="score">0.0% (S:0%)</text><rect x="150" y="3430" width="500" height="30" fill="#eee" rx="5"/><rect x="150" y="3430" width="0.0" height="30" fill="#ef4444" rx="5"/>
        <text x="140" y="3450" text-anchor="end" class="row">v2aryng_vpn</text>
        <text x="660" y="3450" text-anchor="start" class="score">0.0% (S:0%)</text><rect x="150" y="3480" width="500" height="30" fill="#eee" rx="5"/><rect x="150" y="3480" width="0.0" height="30" fill="#ef4444" rx="5"/>
        <text x="140" y="3500" text-anchor="end" class="row">v2fre</text>
        <text x="660" y="3500" text-anchor="start" class="score">0.0% (S:0%)</text><rect x="150" y="3530" width="500" height="30" fill="#eee" rx="5"/><rect x="150" y="3530" width="0.0" height="30" fill="#ef4444" rx="5"/>
        <text x="140" y="3550" text-anchor="end" class="row">v2mystery</text>
        <text x="660" y="3550" text-anchor="start" class="score">0.0% (S:0%)</text><rect x="150" y="3580" width="500" height="30" fill="#eee" rx="5"/><rect x="150" y="3580" width="0.0" height="30" fill="#ef4444" rx="5"/>
        <text x="140" y="3600" text-anchor="end" class="row">v2rang_255</text>
        <text x="660" y="3600" text-anchor="start" class="score">0.0% (S:0%)</text><rect x="150" y="3630" width="500" height="30" fill="#eee" rx="5"/><rect x="150" y="3630" width="0.0" height="30" fill="#ef4444" rx="5"/>
        <text x="140" y="3650" text-anchor="end" class="row">v2ray1_ng</text>
        <text x="660" y="3650" text-anchor="start" class="score">0.0% (S:0%)</text><rect x="150" y="3680" width="500" height="30" fill="#eee" rx="5"/><rect x="150" y="3680" width="0.0" height="30" fill="#ef4444" rx="5"/>
        <text x="140" y="3700" text-anchor="end" class="row">v2ray_alpha</text>
        <text x="660" y="3700" text-anchor="start" class="score">0.0% (S:0%)</text><rect x="150" y="3730" width="500" height="30" fill="#eee" rx="5"/><rect x="150" y="3730" width="0.0" height="30" fill="#ef4444" rx="5"/>
        <text x="140" y="3750" text-anchor="end" class="row">v2ray_raha</text>
        <text x="660" y="3750" text-anchor="start" class="score">0.0% (S:0%)</text><rect x="150" y="3780" width="500" height="30" fill="#eee" rx="5"/><rect x="150" y="3780" width="0.0" height="30" fill="#ef4444" rx="5"/>
        <text x="140" y="3800" text-anchor="end" class="row">v2ray_v_vpn</text>
        <text x="660" y="3800" text-anchor="start" class="score">0.0% (S:0%)</text><rect x="150" y="3830" width="500" height="30" fill="#eee" rx="5"/><rect x="150" y="3830" width="0.0" height="30" fill="#ef4444" rx="5"/>
        <text x="140" y="3850" text-anchor="end" class="row">v2rayminer</text>
        <text x="660" y="3850" text-anchor="start" class="score">0.0% (S:0%)</text><rect x="150" y="3880" width="500" height="30" fill="#eee" rx="5"/><rect x="150" y="3880" width="0.0" height="30" fill="#ef4444" rx="5"/>
        <text x="140" y="3900" text-anchor="end" class="row">v2rayngrit</text>
        <text x="660" y="3900" text-anchor="start" class="score">0.0% (S:0%)</text><rect x="150" y="3930" width="500" height="30" fill="#eee" rx="5"/><rect x="150" y="3930" width="0.0" height="30" fill="#ef4444" rx="5"/>
        <text x="140" y="3950" text-anchor="end" class="row">v2rayngseven</text>
        <text x="660" y="3950" text-anchor="start" class="score">0.0% (S:0%)</text><rect x="150" y="3980" width="500" height="30" fill="#eee" rx="5"/><rect x="150" y="3980" width="0.0" height="30" fill="#ef4444" rx="5"/>
        <text x="140" y="4000" text-anchor="end" class="row">v2rayngvp</text>
        <text x="660" y="4000" text-anchor="start" class="score">0.0% (S:0%)</text><rect x="150" y="4030" width="500" height="30" fill="#eee" rx="5"/><rect x="150" y="4030" width="0.0" height="30" fill="#ef4444" rx="5"/>
        <text x="140" y="4050" text-anchor="end" class="row">v2rayprotocol</text>
        <text x="660" y="4050" text-anchor="start" class="score">0.0% (S:0%)</text><rect x="150" y="4080" width="500" height="30" fill="#eee" rx="5"/><rect x="150" y="4080" width="0.0" height="30" fill="#ef4444" rx="5"/>
        <text x="140" y="4100" text-anchor="end" class="row">v2rayproxy</text>
        <text x="660" y="4100" text-anchor="start" class="score">0.0% (S:0%)</text><rect x="150" y="4130" width="500" height="30" fill="#eee" rx="5"/><rect x="150" y="4130" width="0.0" height="30" fill="#ef4444" rx="5"/>
        <text x="140" y="4150" text-anchor="end" class="row">v2rayvlp</text>
        <text x="660" y="4150" text-anchor="start" class="score">0.0% (S:0%)</text><rect x="150" y="4180" width="500" height="30" fill="#eee" rx="5"/><rect x="150" y="4180" width="0.0" height="30" fill="#ef4444" rx="5"/>
        <text x="140" y="4200" text-anchor="end" class="row">vistav2ray</text>
        <text x="660" y="4200" text-anchor="start" class="score">0.0% (S:0%)</text><rect x="150" y="4230" width="500" height="30" fill="#eee" rx="5"/><rect x="150" y="4230" width="0.0" height="30" fill="#ef4444" rx="5"/>
        <text x="140" y="4250" text-anchor="end" class="row">astrovpn_official</text>
        <text x="660" y="4250" text-anchor="start" class="score">0.0% (S:0%)</text><rect x="150" y="4280" width="500" height="30" fill="#eee" rx="5"/><rect x="150" y="4280" width="0.0" height="30" fill="#ef4444" rx="5"/>
        <text x="140" y="4300" text-anchor="end" class="row">free4allvpn</text>
        <text x="660" y="4300" text-anchor="start" class="score">0.0% (S:0%)</text><rect x="150" y="4330" width="500" height="30" fill="#eee" rx="5"/><rect x="150" y="4330" width="200.0" height="30" fill="#ef4444" rx="5"/>
        <text x="140" y="4350" text-anchor="end" class="row">freev2rays</text>
        <text x="660" y="4350" text-anchor="start" class="score">40.0% (S:0%)</text><rect x="150" y="4380" width="500" height="30" fill="#eee" rx="5"/><rect x="150" y="4380" width="200.0" height="30" fill="#ef4444" rx="5"/>
        <text x="140" y="4400" text-anchor="end" class="row">directvpn</text>
        <text x="660" y="4400" text-anchor="start" class="score">40.0% (S:0%)</text><rect x="150" y="4430" width="500" height="30" fill="#eee" rx="5"/><rect x="150" y="4430" width="0.0" height="30" fill="#ef4444" rx="5"/>
        <text x="140" y="4450" text-anchor="end" class="row">appsooner</text>
        <text x="660" y="4450" text-anchor="start" class="score">0.0% (S:0%)</text><rect x="150" y="4480" width="500" height="30" fill="#eee" rx="5"/><rect x="150" y="4480" width="0.0" height="30" fill="#ef4444" rx="5"/>
        <text x="140" y="4500" text-anchor="end" class="row">dailyv2ry</text>
        <text x="660" y="4500" text-anchor="start" class="score">0.0% (S:0%)</text><rect x="150" y="4530" width="500" height="30" fill="#eee" rx="5"/><rect x="150" y="4530" width="0.0" height="30" fill="#ef4444" rx="5"/>
        <text x="140" y="4550" text-anchor="end" class="row">vpnhubmarket</text>
        <text x="660" y="4550" text-anchor="start" class="score">0.0% (S:0%)</text><rect x="150" y="4580" width="500" height="30" fill="#eee" rx="5"/><rect x="150" y="4580" width="0.0" height="30" fill="#ef4444" rx="5"/>
        <text x="140" y="4600" text-anchor="end" class="row">artemisvpn1</text>
        <text x="660" y="4600" text-anchor="start" class="score">0.0% (S:0%)</text><rect x="150" y="4630" width="500" height="30" fill="#eee" rx="5"/><rect x="150" y="4630" width="0.0" height="30" fill="#ef4444" rx="5"/>
        <text x="140" y="4650" text-anchor="end" class="row">lightconnect_m</text>
        <text x="660" y="4650" text-anchor="start" class="score">0.0% (S:0%)</text><rect x="150" y="4680" width="500" height="30" fill="#eee" rx="5"/><rect x="150" y="4680" width="0.0" height="30" fill="#ef4444" rx="5"/>
        <text x="140" y="4700" text-anchor="end" class="row">v2rayng_vpnn</text>
        <text x="660" y="4700" text-anchor="start" class="score">0.0% (S:0%)</text><rect x="150" y="4730" width="500" height="30" fill="#eee" rx="5"/><rect x="150" y="4730" width="0.0" height="30" fill="#ef4444" rx="5"/>
        <text x="140" y="4750" text-anchor="end" class="row">V2pedia</text>
        <text x="660" y="4750" text-anchor="start" class="score">0.0% (S:0%)</text><rect x="150" y="4780" width="500" height="30" fill="#eee" rx="5"/><rect x="150" y="4780" width="0.0" height="30" fill="#ef4444" rx="5"/>
        <text x="140" y="4800" text-anchor="end" class="row">networknim</text>
        <text x="660" y="4800" text-anchor="start" class="score">0.0% (S:0%)</text><rect x="150" y="4830" width="500" height="30" fill="#eee" rx="5"/><rect x="150" y="4830" width="163.0" height="30" fill="#ef4444" rx="5"/>
        <text x="140" y="4850" text-anchor="end" class="row">DailyV2RY</text>
        <text x="660" y="4850" text-anchor="start" class="score">32.6% (S:0%)</text><rect x="150" y="4880" width="500" height="30" fill="#eee" rx="5"/><rect x="150" y="4880" width="75.0" height="30" fill="#ef4444" rx="5"/>
        <text x="140" y="4900" text-anchor="end" class="row">freeland8</text>
        <text x="660" y="4900" text-anchor="start" class="score">15.0% (S:0%)</text><rect x="150" y="4930" width="500" height="30" fill="#eee" rx="5"/><rect x="150" y="4930" width="75.0" height="30" fill="#ef4444" rx="5"/>
        <text x="140" y="4950" text-anchor="end" class="row">vmessiran</text>
        <text x="660" y="4950" text-anchor="start" class="score">15.0% (S:0%)</text><rect x="150" y="4980" width="500" height="30" fill="#eee" rx="5"/><rect x="150" y="4980" width="75.0" height="30" fill="#ef4444" rx="5"/>
        <text x="140" y="5000" text-anchor="end" class="row">Outline_Vpn</text>
        <text x="660" y="5000" text-anchor="start" class="score">15.0% (S:0%)</text><rect x="150" y="5030" width="500" height="30" fill="#eee" rx="5"/><rect x="150" y="5030" width="75.0" height="30" fill="#ef4444" rx="5"/>
        <text x="140" y="5050" text-anchor="end" class="row">vmessq</text>
        <text x="660" y="5050" text-anchor="start" class="score">15.0% (S:0%)</text><rect x="150" y="5080" width="500" height="30" fill="#eee" rx="5"/><rect x="150" y="5080" width="75.0" height="30" fill="#ef4444" rx="5"/>
        <text x="140" y="5100" text-anchor="end" class="row">WeePeeN</text>
        <text x="660" y="5100" text-anchor="start" class="score">15.0% (S:0%)</text><rect x="150" y="5130" width="500" height="30" fill="#eee" rx="5"/><rect x="150" y="5130" width="0.0" height="30" fill="#ef4444" rx="5"/>
        <text x="140" y="5150" text-anchor="end" class="row">V2rayNG3</text>
        <text x="660" y="5150" text-anchor="start" class="score">0.0% (S:0%)</text><rect x="150" y="5180" width="500" height="30" fill="#eee" rx="5"/><rect x="150" y="5180" width="0.0" height="30" fill="#ef4444" rx="5"/>
        <text x="140" y="5200" text-anchor="end" class="row">ShadowsocksM</text>
        <text x="660" y="5200" text-anchor="start" class="score">0.0% (S:0%)</text><rect x="150" y="5230" width="500" height="30" fill="#eee" rx="5"/><rect x="150" y="5230" width="75.0" height="30" fill="#ef4444" rx="5"/>
        <text x="140" y="5250" text-anchor="end" class="row">shadowsocksshop</text>
        <text x="660" y="5250" text-anchor="start" class="score">15.0% (S:0%)</text><rect x="150" y="5280" width="500" height="30" fill="#eee" rx="5"/><rect x="150" y="5280" width="75.0" height="30" fill="#ef4444" rx="5"/>
        <text x="140" y="5300" text-anchor="end" class="row">v2rayan</text>
        <text x="660" y="5300" text-anchor="start" class="score">15.0% (S:0%)</text><rect x="150" y="5330" width="500" height="30" fill="#eee" rx="5"/><rect x="150" y="5330" width="75.0" height="30" fill="#ef4444" rx="5"/>
        <text x="140" y="5350" text-anchor="end" class="row">ShadowSocks_s</text>
        <text x="660" y="5350" text-anchor="start" class="score">15.0% (S:0%)</text><rect x="150" y="5380" width="500" height="30" fill="#eee" rx="5"/><rect x="150" y="5380" width="75.0" height="30" fill="#ef4444" rx="5"/>
        <text x="140" y="5400" text-anchor="end" class="row">napsternetv_config</text>
        <text x="660" y="5400" text-anchor="start" class="score">15.0% (S:0%)</text><rect x="150" y="5430" width="500" height="30" fill="#eee" rx="5"/><rect x="150" y="5430" width="75.0" height="30" fill="#ef4444" rx="5"/>
        <text x="140" y="5450" text-anchor="end" class="row">Easy_Free_VPN</text>
        <text x="660" y="5450" text-anchor="start" class="score">15.0% (S:0%)</text><rect x="150" y="5480" width="500" height="30" fill="#eee" rx="5"/><rect x="150" y="5480" width="75.0" height="30" fill="#ef4444" rx="5"/>
        <text x="140" y="5500" text-anchor="end" class="row">V2Ray_FreedomIran</text>
        <text x="660" y="5500" text-anchor="start" class="score">15.0% (S:0%)</text><rect x="150" y="5530" width="500" height="30" fill="#eee" rx="5"/><rect x="150" y="5530" width="75.0" height="30" fill="#ef4444" rx="5"/>
        <text x="140" y="5550" text-anchor="end" class="row">V2RAY_VMESS_free</text>
        <text x="660" y="5550" text-anchor="start" class="score">15.0% (S:0%)</text><rect x="150" y="5580" width="500" height="30" fill="#eee" rx="5"/><rect x="150" y="5580" width="75.0" height="30" fill="#ef4444" rx="5"/>
        <text x="140" y="5600" text-anchor="end" class="row">v2ray_for_free</text>
        <text x="660" y="5600" text-anchor="start" class="score">15.0% (S:0%)</text><rect x="150" y="5630" width="500" height="30" fill="#eee" rx="5"/><rect x="150" y="5630" width="75.0" height="30" fill="#ef4444" rx="5"/>
        <text x="140" y="5650" text-anchor="end" class="row">V2rayN_Free</text>
        <text x="660" y="5650" text-anchor="start" class="score">15.0% (S:0%)</text><rect x="150" y="5680" width="500" height="30" fill="#eee" rx="5"/><rect x="150" y="5680" width="75.0" height="30" fill="#ef4444" rx="5"/>
        <text x="140" y="5700" text-anchor="end" class="row">vpn_ocean</text>
        <text x="660" y="5700" text-anchor="start" class="score">15.0% (S:0%)</text><rect x="150" y="5730" width="500" height="30" fill="#eee" rx="5"/><rect x="150" y="5730" width="0.0" height="30" fill="#ef4444" rx="5"/>
        <text x="140" y="5750" text-anchor="end" class="row">configV2rayForFree</text>
        <text x="660" y="5750" text-anchor="start" class="score">0.0% (S:0%)</text><rect x="150" y="5780" width="500" height="30" fill="#eee" rx="5"/><rect x="150" y="5780" width="75.0" height="30" fill="#ef4444" rx="5"/>
        <text x="140" y="5800" text-anchor="end" class="row">DigiV2ray</text>
        <text x="660" y="5800" text-anchor="start" class="score">15.0% (S:0%)</text><rect x="150" y="5830" width="500" height="30" fill="#eee" rx="5"/><rect x="150" y="5830" width="75.0" height="30" fill="#ef4444" rx="5"/>
        <text x="140" y="5850" text-anchor="end" class="row">freev2rayssr</text>
        <text x="660" y="5850" text-anchor="start" class="score">15.0% (S:0%)</text><rect x="150" y="5880" width="500" height="30" fill="#eee" rx="5"/><rect x="150" y="5880" width="75.0" height="30" fill="#ef4444" rx="5"/>
        <text x="140" y="5900" text-anchor="end" class="row">v2rayn_server</text>
        <text x="660" y="5900" text-anchor="start" class="score">15.0% (S:0%)</text><rect x="150" y="5930" width="500" height="30" fill="#eee" rx="5"/><rect x="150" y="5930" width="75.0" height="30" fill="#ef4444" rx="5"/>
        <text x="140" y="5950" text-anchor="end" class="row">Shadowlinkserverr</text>
        <text x="660" y="5950" text-anchor="start" class="score">15.0% (S:0%)</text><rect x="150" y="5980" width="500" height="30" fill="#eee" rx="5"/><rect x="150" y="5980" width="75.0" height="30" fill="#ef4444" rx="5"/>
        <text x="140" y="6000" text-anchor="end" class="row">iranvpnet</text>
        <text x="660" y="6000" text-anchor="start" class="score">15.0% (S:0%)</text><rect x="150" y="6030" width="500" height="30" fill="#eee" rx="5"/><rect x="150" y="6030" width="75.0" height="30" fill="#ef4444" rx="5"/>
        <text x="140" y="6050" text-anchor="end" class="row">mahsaamoon1</text>
        <text x="660" y="6050" text-anchor="start" class="score">15.0% (S:0%)</text><rect x="150" y="6080" width="500" height="30" fill="#eee" rx="5"/><rect x="150" y="6080" width="75.0" height="30" fill="#ef4444" rx="5"/>
        <text x="140" y="6100" text-anchor="end" class="row">V2RAY_NEW</text>
        <text x="660" y="6100" text-anchor="start" class="score">15.0% (S:0%)</text><rect x="150" y="6130" width="500" height="30" fill="#eee" rx="5"/><rect x="150" y="6130" width="75.0" height="30" fill="#ef4444" rx="5"/>
        <text x="140" y="6150" text-anchor="end" class="row">v2RayChannel</text>
        <text x="660" y="6150" text-anchor="start" class="score">15.0% (S:0%)</text><rect x="150" y="6180" width="500" height="30" fill="#eee" rx="5"/><rect x="150" y="6180" width="75.0" height="30" fill="#ef4444" rx="5"/>
        <text x="140" y="6200" text-anchor="end" class="row">configV2rayNG</text>
        <text x="660" y="6200" text-anchor="start" class="score">15.0% (S:0%)</text><rect x="150" y="6230" width="500" height="30" fill="#eee" rx="5"/><rect x="150" y="6230" width="75.0" height="30" fill="#ef4444" rx="5"/>
        <text x="140" y="6250" text-anchor="end" class="row">config_v2ray</text>
        <text x="660" y="6250" text-anchor="start" class="score">15.0% (S:0%)</text><rect x="150" y="6280" width="500" height="30" fill="#eee" rx="5"/><rect x="150" y="6280" width="0.0" height="30" fill="#ef4444" rx="5"/>
        <text x="140" y="6300" text-anchor="end" class="row">vpn_proxy_custom</text>
        <text x="660" y="6300" text-anchor="start" class="score">0.0% (S:0%)</text><rect x="150" y="6330" width="500" height="30" fill="#eee" rx="5"/><rect x="150" y="6330" width="0.0" height="30" fill="#ef4444" rx="5"/>
        <text x="140" y="6350" text-anchor="end" class="row">vpnmasi</text>
        <text x="660" y="6350" text-anchor="start" class="score">0.0% (S:0%)</text><rect x="150" y="6380" width="500" height="30" fill="#eee" rx="5"/><rect x="150" y="6380" width="75.0" height="30" fill="#ef4444" rx="5"/>
        <text x="140" y="6400" text-anchor="end" class="row">v2ray_custom</text>
        <text x="660" y="6400" text-anchor="start" class="score">15.0% (S:0%)</text><rect x="150" y="6430" width="500" height="30" fill="#eee" rx="5"/><rect x="150" y="6430" width="75.0" height="30" fill="#ef4444" rx="5"/>
        <text x="140" y="6450" text-anchor="end" class="row">VPNCUSTOMIZE</text>
        <text x="660" y="6450" text-anchor="start" class="score">15.0% (S:0%)</text><rect x="150" y="6480" width="500" height="30" fill="#eee" rx="5"/><rect x="150" y="6480" width="75.0" height="30" fill="#ef4444" rx="5"/>
        <text x="140" y="6500" text-anchor="end" class="row">HTTPCustomLand</text>
        <text x="660" y="6500" text-anchor="start" class="score">15.0% (S:0%)</text><rect x="150" y="6530" width="500" height="30" fill="#eee" rx="5"/><rect x="150" y="6530" width="75.0" height="30" fill="#ef4444" rx="5"/>
        <text x="140" y="6550" text-anchor="end" class="row">ViPVpn_v2ray</text>
        <text x="660" y="6550" text-anchor="start" class="score">15.0% (S:0%)</text><rect x="150" y="6580" width="500" height="30" fill="#eee" rx="5"/><rect x="150" y="6580" width="75.0" height="30" fill="#ef4444" rx="5"/>
        <text x="140" y="6600" text-anchor="end" class="row">FreeNet1500</text>
        <text x="660" y="6600" text-anchor="start" class="score">15.0% (S:0%)</text><rect x="150" y="6630" width="500" height="30" fill="#eee" rx="5"/><rect x="150" y="6630" width="75.0" height="30" fill="#ef4444" rx="5"/>
        <text x="140" y="6650" text-anchor="end" class="row">v2ray_ar</text>
        <text x="660" y="6650" text-anchor="start" class="score">15.0% (S:0%)</text><rect x="150" y="6680" width="500" height="30" fill="#eee" rx="5"/><rect x="150" y="6680" width="75.0" height="30" fill="#ef4444" rx="5"/>
        <text x="140" y="6700" text-anchor="end" class="row">beta_v2ray</text>
        <text x="660" y="6700" text-anchor="start" class="score">15.0% (S:0%)</text><rect x="150" y="6730" width="500" height="30" fill="#eee" rx="5"/><rect x="150" y="6730" width="75.0" height="30" fill="#ef4444" rx="5"/>
        <text x="140" y="6750" text-anchor="end" class="row">vip_vpn_2022</text>
        <text x="660" y="6750" text-anchor="start" class="score">15.0% (S:0%)</text><rect x="150" y="6780" width="500" height="30" fill="#eee" rx="5"/><rect x="150" y="6780" width="75.0" height="30" fill="#ef4444" rx="5"/>
        <text x="140" y="6800" text-anchor="end" class="row">FOX_VPN66</text>
        <text x="660" y="6800" text-anchor="start" class="score">15.0% (S:0%)</text><rect x="150" y="6830" width="500" height="30" fill="#eee" rx="5"/><rect x="150" y="6830" width="75.0" height="30" fill="#ef4444" rx="5"/>
        <text x="140" y="6850" text-anchor="end" class="row">VorTexIRN</text>
        <text x="660" y="6850" text-anchor="start" class="score">15.0% (S:0%)</text><rect x="150" y="6880" width="500" height="30" fill="#eee" rx="5"/><rect x="150" y="6880" width="75.0" height="30" fill="#ef4444" rx="5"/>
        <text x="140" y="6900" text-anchor="end" class="row">YtTe3la</text>
        <text x="660" y="6900" text-anchor="start" class="score">15.0% (S:0%)</text><rect x="150" y="6930" width="500" height="30" fill="#eee" rx="5"/><rect x="150" y="6930" width="75.0" height="30" fill="#ef4444" rx="5"/>
        <text x="140" y="6950" text-anchor="end" class="row">V2RayOxygen</text>
        <text x="660" y="6950" text-anchor="start" class="score">15.0% (S:0%)</text><rect x="150" y="6980" width="500" height="30" fill="#eee" rx="5"/><rect x="150" y="6980" width="75.0" height="30" fill="#ef4444" rx="5"/>
        <text x="140" y="7000" text-anchor="end" class="row">Network_442</text>
        <text x="660" y="7000" text-anchor="start" class="score">15.0% (S:0%)</text><rect x="150" y="7030" width="500" height="30" fill="#eee" rx="5"/><rect x="150" y="7030" width="75.0" height="30" fill="#ef4444" rx="5"/>
        <text x="140" y="7050" text-anchor="end" class="row">VPN_443</text>
        <text x="660" y="7050" text-anchor="start" class="score">15.0% (S:0%)</text><rect x="150" y="7080" width="500" height="30" fill="#eee" rx="5"/><rect x="150" y="7080" width="75.0" height="30" fill="#ef4444" rx="5"/>
        <text x="140" y="7100" text-anchor="end" class="row">v2rayng_v</text>
        <text x="660" y="7100" text-anchor="start" class="score">15.0% (S:0%)</text><rect x="150" y="7130" width="500" height="30" fill="#eee" rx="5"/><rect x="150" y="7130" width="75.0" height="30" fill="#ef4444" rx="5"/>
        <text x="140" y="7150" text-anchor="end" class="row">ultrasurf_12</text>
        <text x="660" y="7150" text-anchor="start" class="score">15.0% (S:0%)</text><rect x="150" y="7180" width="500" height="30" fill="#eee" rx="5"/><rect x="150" y="7180" width="75.0" height="30" fill="#ef4444" rx="5"/>
        <text x="140" y="7200" text-anchor="end" class="row">iSeqaro</text>
        <text x="660" y="7200" text-anchor="start" class="score">15.0% (S:0%)</text><rect x="150" y="7230" width="500" height="30" fill="#eee" rx="5"/><rect x="150" y="7230" width="75.0" height="30" fill="#ef4444" rx="5"/>
        <text x="140" y="7250" text-anchor="end" class="row">frev2rayng</text>
        <text x="660" y="7250" text-anchor="start" class="score">15.0% (S:0%)</text><rect x="150" y="7280" width="500" height="30" fill="#eee" rx="5"/><rect x="150" y="7280" width="75.0" height="30" fill="#ef4444" rx="5"/>
        <text x="140" y="7300" text-anchor="end" class="row">frev2ray</text>
        <text x="660" y="7300" text-anchor="start" class="score">15.0% (S:0%)</text><rect x="150" y="7330" width="500" height="30" fill="#eee" rx="5"/><rect x="150" y="7330" width="0.0" height="30" fill="#ef4444" rx="5"/>
        <text x="140" y="7350" text-anchor="end" class="row">Awlix_ir</text>
        <text x="660" y="7350" text-anchor="start" class="score">0.0% (S:0%)</text><rect x="150" y="7380" width="500" height="30" fill="#eee" rx="5"/><rect x="150" y="7380" width="75.0" height="30" fill="#ef4444" rx="5"/>
        <text x="140" y="7400" text-anchor="end" class="row">v2rayngvpn</text>
        <text x="660" y="7400" text-anchor="start" class="score">15.0% (S:0%)</text><rect x="150" y="7430" width="500" height="30" fill="#eee" rx="5"/><rect x="150" y="7430" width="75.0" height="30" fill="#ef4444" rx="5"/>
        <text x="140" y="7450" text-anchor="end" class="row">God_CONFIG</text>
        <text x="660" y="7450" text-anchor="start" class="score">15.0% (S:0%)</text><rect x="150" y="7480" width="500" height="30" fill="#eee" rx="5"/><rect x="150" y="7480" width="75.0" height="30" fill="#ef4444" rx="5"/>
        <text x="140" y="7500" text-anchor="end" class="row">Configforvpn01</text>
        <text x="660" y="7500" text-anchor="start" class="score">15.0% (S:0%)</text><rect x="150" y="7530" width="500" height="30" fill="#eee" rx="5"/><rect x="150" y="7530" width="75.0" height="30" fill="#ef4444" rx="5"/>
        <text x="140" y="7550" text-anchor="end" class="row">TUICity</text>
        <text x="660" y="7550" text-anchor="start" class="score">15.0% (S:0%)</text><rect x="150" y="7580" width="500" height="30" fill="#eee" rx="5"/><rect x="150" y="7580" width="75.0" height="30" fill="#ef4444" rx="5"/>
        <text x="140" y="7600" text-anchor="end" class="row">ParsRoute</text>
        <text x="660" y="7600" text-anchor="start" class="score">15.0% (S:0%)</text></svg>