<?xml version="1.0" encoding="UTF-8"?>
    <svg width="800" height="1000" version="1.1" xmlns="http://www.w3.org/2000/svg">
    <style>
        .row { font: 14px Arial; fill: #64748b; }
        .score { font: bold 14px Arial; fill: #64748b; }
    </style>
    <text x="400" y="40" text-anchor="middle" font-size="20px" font-weight="bold" fill="#64748b">Channel Performance Overview</text><rect x="150" y="80" width="500" height="30" fill="#eee" rx="5"/><rect x="150" y="80" width="223.75" height="30" fill="#ef4444" rx="5"/>
        <text x="140" y="100" text-anchor="end" class="row">config.txt</text>
        <text x="660" y="100" text-anchor="start" class="score">44.8% (S:0%)</text><rect x="150" y="130" width="500" height="30" fill="#eee" rx="5"/><rect x="150" y="130" width="75.0" height="30" fill="#ef4444" rx="5"/>
        <text x="140" y="150" text-anchor="end" class="row">V2RAY_SUB.txt</text>
        <text x="660" y="150" text-anchor="start" class="score">15.0% (S:0%)</text><rect x="150" y="180" width="500" height="30" fill="#eee" rx="5"/><rect x="150" y="180" width="75.0" height="30" fill="#ef4444" rx="5"/>
        <text x="140" y="200" text-anchor="end" class="row">reality.txt</text>
        <text x="660" y="200" text-anchor="start" class="score">15.0% (S:0%)</text><rect x="150" y="230" width="500" height="30" fill="#eee" rx="5"/><rect x="150" y="230" width="75.0" height="30" fill="#ef4444" rx="5"/>
        <text x="140" y="250" text-anchor="end" class="row">VL100.txt</text>
        <text x="660" y="250" text-anchor="start" class="score">15.0% (S:0%)</text><rect x="150" y="280" width="500" height="30" fill="#eee" rx="5"/><rect x="150" y="280" width="75.0" height="30" fill="#ef4444" rx="5"/>
        <text x="140" y="300" text-anchor="end" class="row">hysteria</text>
        <text x="660" y="300" text-anchor="start" class="score">15.0% (S:0%)</text><rect x="150" y="330" width="500" height="30" fill="#eee" rx="5"/><rect x="150" y="330" width="75.0" height="30" fill="#ef4444" rx="5"/>
        <text x="140" y="350" text-anchor="end" class="row">vless.txt</text>
        <text x="660" y="350" text-anchor="start" class="score">15.0% (S:0%)</text><rect x="150" y="380" width="500" height="30" fill="#eee" rx="5"/><rect x="150" y="380" width="75.0" height="30" fill="#ef4444" rx="5"/>
        <text x="140" y="400" text-anchor="end" class="row">trojan.txt</text>
        <text x="660" y="400" text-anchor="start" class="score">15.0% (S:0%)</text><rect x="150" y="430" width="500" height="30" fill="#eee" rx="5"/><rect x="150" y="430" width="75.0" height="30" fill="#ef4444" rx="5"/>
        <text x="140" y="450" text-anchor="end" class="row">vless.txt</text>
        <text x="660" y="450" text-anchor="start" class="score">15.0% (S:0%)</text><rect x="150" y="480" width="500" height="30" fill="#eee" rx="5"/><rect x="150" y="480" width="75.0" height="30" fill="#ef4444" rx="5"/>
        <text x="140" y="500" text-anchor="end" class="row">trojan.txt</text>
        <text x="660" y="500" text-anchor="start" class="score">15.0% (S:0%)</text><rect x="150" y="530" width="500" height="30" fill="#eee" rx="5"/><rect x="150" y="530" width="75.0" height="30" fill="#ef4444" rx="5"/>
        <text x="140" y="550" text-anchor="end" class="row">hysteria2.txt</text>
        <text x="660" y="550" text-anchor="start" class="score">15.0% (S:0%)</text><rect x="150" y="580" width="500" height="30" fill="#eee" rx="5"/><rect x="150" y="580" width="75.0" height="30" fill="#ef4444" rx="5"/>
        <text x="140" y="600" text-anchor="end" class="row">wstls_base64</text>
        <text x="660" y="600" text-anchor="start" class="score">15.0% (S:0%)</text><rect x="150" y="630" width="500" height="30" fill="#eee" rx="5"/><rect x="150" y="630" width="324.7" height="30" fill="#eab308" rx="5"/>
        <text x="140" y="650" text-anchor="end" class="row">udp.txt</text>
        <text x="660" y="650" text-anchor="start" class="score">64.9% (S:0%)</text><rect x="150" y="680" width="500" height="30" fill="#eee" rx="5"/><rect x="150" y="680" width="302.0" height="30" fill="#eab308" rx="5"/>
        <text x="140" y="700" text-anchor="end" class="row">vless</text>
        <text x="660" y="700" text-anchor="start" class="score">60.4% (S:0%)</text><rect x="150" y="730" width="500" height="30" fill="#eee" rx="5"/><rect x="150" y="730" width="75.0" height="30" fill="#ef4444" rx="5"/>
        <text x="140" y="750" text-anchor="end" class="row">mix-security-re</text>
        <text x="660" y="750" text-anchor="start" class="score">15.0% (S:0%)</text><rect x="150" y="780" width="500" height="30" fill="#eee" rx="5"/><rect x="150" y="780" width="213.9" height="30" fill="#ef4444" rx="5"/>
        <text x="140" y="800" text-anchor="end" class="row">mix-security-tl</text>
        <text x="660" y="800" text-anchor="start" class="score">42.8% (S:0%)</text><rect x="150" y="830" width="500" height="30" fill="#eee" rx="5"/><rect x="150" y="830" width="75.0" height="30" fill="#ef4444" rx="5"/>
        <text x="140" y="850" text-anchor="end" class="row">mix-network-xh</text>
        <text x="660" y="850" text-anchor="start" class="score">15.0% (S:0%)</text><rect x="150" y="880" width="500" height="30" fill="#eee" rx="5"/><rect x="150" y="880" width="75.0" height="30" fill="#ef4444" rx="5"/>
        <text x="140" y="900" text-anchor="end" class="row">mix-network-gr</text>
        <text x="660" y="900" text-anchor="start" class="score">15.0% (S:0%)</text><rect x="150" y="930" width="500" height="30" fill="#eee" rx="5"/><rect x="150" y="930" width="75.0" height="30" fill="#ef4444" rx="5"/>
        <text x="140" y="950" text-anchor="end" class="row">mix-network-ht</text>
        <text x="660" y="950" text-anchor="start" class="score">15.0% (S:0%)</text></svg>